<mxfile host="app.diagrams.net" agent="Mozilla/5.0 (Windows NT 10.0; Win64; x64) AppleWebKit/537.36 (KHTML, like Gecko) Chrome/136.0.0.0 Safari/537.36" version="27.1.1" pages="2">
  <diagram name="Page-1" id="PWdMtQFU4OBxkl7ewaEB">
    <mxGraphModel dx="1226" dy="675" grid="1" gridSize="10" guides="1" tooltips="1" connect="1" arrows="0" fold="1" page="1" pageScale="1" pageWidth="850" pageHeight="1100" background="none" math="0" shadow="0" adaptiveColors="none">
      <root>
        <mxCell id="0" />
        <mxCell id="1" parent="0" />
        <mxCell id="us3CnqQdpKLgeB0TEY4D-1" value="LOGIN Dipanggil" style="rounded=1;whiteSpace=wrap;html=1;" vertex="1" parent="1">
          <mxGeometry x="300" y="100" width="120" height="60" as="geometry" />
        </mxCell>
        <mxCell id="us3CnqQdpKLgeB0TEY4D-2" value="Input Username" style="shape=parallelogram;perimeter=parallelogramPerimeter;whiteSpace=wrap;html=1;fixedSize=1;" vertex="1" parent="1">
          <mxGeometry x="300" y="200" width="120" height="60" as="geometry" />
        </mxCell>
        <mxCell id="us3CnqQdpKLgeB0TEY4D-3" value="" style="endArrow=classic;html=1;rounded=0;exitX=0.5;exitY=1;exitDx=0;exitDy=0;entryX=0.5;entryY=0;entryDx=0;entryDy=0;" edge="1" parent="1" source="us3CnqQdpKLgeB0TEY4D-1" target="us3CnqQdpKLgeB0TEY4D-2">
          <mxGeometry width="50" height="50" relative="1" as="geometry">
            <mxPoint x="400" y="330" as="sourcePoint" />
            <mxPoint x="450" y="280" as="targetPoint" />
          </mxGeometry>
        </mxCell>
        <mxCell id="us3CnqQdpKLgeB0TEY4D-4" value="Input Password" style="shape=parallelogram;perimeter=parallelogramPerimeter;whiteSpace=wrap;html=1;fixedSize=1;" vertex="1" parent="1">
          <mxGeometry x="300" y="300" width="120" height="60" as="geometry" />
        </mxCell>
        <mxCell id="us3CnqQdpKLgeB0TEY4D-6" value="" style="endArrow=classic;html=1;rounded=0;exitX=0.5;exitY=1;exitDx=0;exitDy=0;entryX=0.5;entryY=0;entryDx=0;entryDy=0;" edge="1" parent="1" source="us3CnqQdpKLgeB0TEY4D-2" target="us3CnqQdpKLgeB0TEY4D-4">
          <mxGeometry width="50" height="50" relative="1" as="geometry">
            <mxPoint x="400" y="330" as="sourcePoint" />
            <mxPoint x="420" y="270" as="targetPoint" />
          </mxGeometry>
        </mxCell>
        <mxCell id="us3CnqQdpKLgeB0TEY4D-25" style="edgeStyle=orthogonalEdgeStyle;rounded=0;orthogonalLoop=1;jettySize=auto;html=1;exitX=0.5;exitY=1;exitDx=0;exitDy=0;entryX=0.5;entryY=0;entryDx=0;entryDy=0;" edge="1" parent="1" source="us3CnqQdpKLgeB0TEY4D-7" target="us3CnqQdpKLgeB0TEY4D-14">
          <mxGeometry relative="1" as="geometry" />
        </mxCell>
        <mxCell id="us3CnqQdpKLgeB0TEY4D-26" style="edgeStyle=orthogonalEdgeStyle;rounded=0;orthogonalLoop=1;jettySize=auto;html=1;exitX=0;exitY=0.5;exitDx=0;exitDy=0;entryX=0.5;entryY=0;entryDx=0;entryDy=0;" edge="1" parent="1" source="us3CnqQdpKLgeB0TEY4D-7" target="us3CnqQdpKLgeB0TEY4D-13">
          <mxGeometry relative="1" as="geometry" />
        </mxCell>
        <mxCell id="us3CnqQdpKLgeB0TEY4D-7" value="Cek Username &amp;amp; Password Ada di Database" style="rhombus;whiteSpace=wrap;html=1;" vertex="1" parent="1">
          <mxGeometry x="300" y="390" width="120" height="120" as="geometry" />
        </mxCell>
        <mxCell id="us3CnqQdpKLgeB0TEY4D-8" value="" style="endArrow=classic;html=1;rounded=0;exitX=0.5;exitY=1;exitDx=0;exitDy=0;entryX=0.5;entryY=0;entryDx=0;entryDy=0;" edge="1" parent="1" source="us3CnqQdpKLgeB0TEY4D-4" target="us3CnqQdpKLgeB0TEY4D-7">
          <mxGeometry width="50" height="50" relative="1" as="geometry">
            <mxPoint x="400" y="450" as="sourcePoint" />
            <mxPoint x="450" y="400" as="targetPoint" />
          </mxGeometry>
        </mxCell>
        <mxCell id="us3CnqQdpKLgeB0TEY4D-12" value="Masuk Ke Menu Pasien" style="rounded=1;whiteSpace=wrap;html=1;" vertex="1" parent="1">
          <mxGeometry x="450" y="565" width="100" height="50" as="geometry" />
        </mxCell>
        <mxCell id="us3CnqQdpKLgeB0TEY4D-13" value="Keluar Program" style="rounded=1;whiteSpace=wrap;html=1;" vertex="1" parent="1">
          <mxGeometry x="130" y="680" width="120" height="50" as="geometry" />
        </mxCell>
        <mxCell id="us3CnqQdpKLgeB0TEY4D-23" style="edgeStyle=orthogonalEdgeStyle;rounded=0;orthogonalLoop=1;jettySize=auto;html=1;exitX=0.5;exitY=1;exitDx=0;exitDy=0;entryX=0.5;entryY=0;entryDx=0;entryDy=0;" edge="1" parent="1" source="us3CnqQdpKLgeB0TEY4D-14" target="us3CnqQdpKLgeB0TEY4D-15">
          <mxGeometry relative="1" as="geometry" />
        </mxCell>
        <mxCell id="us3CnqQdpKLgeB0TEY4D-24" style="edgeStyle=orthogonalEdgeStyle;rounded=0;orthogonalLoop=1;jettySize=auto;html=1;exitX=1;exitY=0.5;exitDx=0;exitDy=0;entryX=0;entryY=0.5;entryDx=0;entryDy=0;" edge="1" parent="1" source="us3CnqQdpKLgeB0TEY4D-14" target="us3CnqQdpKLgeB0TEY4D-12">
          <mxGeometry relative="1" as="geometry" />
        </mxCell>
        <mxCell id="us3CnqQdpKLgeB0TEY4D-14" value="Role Adalah Pasien" style="rhombus;whiteSpace=wrap;html=1;" vertex="1" parent="1">
          <mxGeometry x="312.5" y="540" width="95" height="100" as="geometry" />
        </mxCell>
        <mxCell id="us3CnqQdpKLgeB0TEY4D-21" style="edgeStyle=orthogonalEdgeStyle;rounded=0;orthogonalLoop=1;jettySize=auto;html=1;exitX=0.5;exitY=1;exitDx=0;exitDy=0;entryX=0.5;entryY=0;entryDx=0;entryDy=0;" edge="1" parent="1" source="us3CnqQdpKLgeB0TEY4D-15" target="us3CnqQdpKLgeB0TEY4D-16">
          <mxGeometry relative="1" as="geometry" />
        </mxCell>
        <mxCell id="us3CnqQdpKLgeB0TEY4D-22" style="edgeStyle=orthogonalEdgeStyle;rounded=0;orthogonalLoop=1;jettySize=auto;html=1;exitX=1;exitY=0.5;exitDx=0;exitDy=0;entryX=0;entryY=0.5;entryDx=0;entryDy=0;" edge="1" parent="1" source="us3CnqQdpKLgeB0TEY4D-15" target="us3CnqQdpKLgeB0TEY4D-17">
          <mxGeometry relative="1" as="geometry" />
        </mxCell>
        <mxCell id="us3CnqQdpKLgeB0TEY4D-15" value="Role Adalah Dokter" style="rhombus;whiteSpace=wrap;html=1;" vertex="1" parent="1">
          <mxGeometry x="312.5" y="680" width="95" height="90" as="geometry" />
        </mxCell>
        <mxCell id="us3CnqQdpKLgeB0TEY4D-20" style="edgeStyle=orthogonalEdgeStyle;rounded=0;orthogonalLoop=1;jettySize=auto;html=1;exitX=1;exitY=0.5;exitDx=0;exitDy=0;entryX=0;entryY=0.5;entryDx=0;entryDy=0;" edge="1" parent="1" source="us3CnqQdpKLgeB0TEY4D-16" target="us3CnqQdpKLgeB0TEY4D-18">
          <mxGeometry relative="1" as="geometry" />
        </mxCell>
        <mxCell id="us3CnqQdpKLgeB0TEY4D-27" style="edgeStyle=orthogonalEdgeStyle;rounded=0;orthogonalLoop=1;jettySize=auto;html=1;exitX=0;exitY=0.5;exitDx=0;exitDy=0;entryX=0.5;entryY=1;entryDx=0;entryDy=0;" edge="1" parent="1" source="us3CnqQdpKLgeB0TEY4D-16" target="us3CnqQdpKLgeB0TEY4D-13">
          <mxGeometry relative="1" as="geometry" />
        </mxCell>
        <mxCell id="us3CnqQdpKLgeB0TEY4D-16" value="Role Adalah Manajer" style="rhombus;whiteSpace=wrap;html=1;" vertex="1" parent="1">
          <mxGeometry x="310" y="810" width="100" height="100" as="geometry" />
        </mxCell>
        <mxCell id="us3CnqQdpKLgeB0TEY4D-17" value="Masuk Ke Menu Dokter" style="rounded=1;whiteSpace=wrap;html=1;" vertex="1" parent="1">
          <mxGeometry x="450" y="702.5" width="100" height="45" as="geometry" />
        </mxCell>
        <mxCell id="us3CnqQdpKLgeB0TEY4D-18" value="Masuk Ke Menu Manajer" style="rounded=1;whiteSpace=wrap;html=1;" vertex="1" parent="1">
          <mxGeometry x="450" y="832.5" width="110" height="55" as="geometry" />
        </mxCell>
        <mxCell id="us3CnqQdpKLgeB0TEY4D-28" value="&lt;font style=&quot;font-size: 11px;&quot;&gt;YES&lt;/font&gt;" style="text;html=1;align=center;verticalAlign=middle;whiteSpace=wrap;rounded=0;" vertex="1" parent="1">
          <mxGeometry x="365" y="500" width="35" height="30" as="geometry" />
        </mxCell>
        <mxCell id="us3CnqQdpKLgeB0TEY4D-29" value="NO" style="text;html=1;align=center;verticalAlign=middle;whiteSpace=wrap;rounded=0;" vertex="1" parent="1">
          <mxGeometry x="270" y="450" width="30" height="30" as="geometry" />
        </mxCell>
        <mxCell id="us3CnqQdpKLgeB0TEY4D-31" value="YES" style="text;html=1;align=center;verticalAlign=middle;whiteSpace=wrap;rounded=0;" vertex="1" parent="1">
          <mxGeometry x="390" y="590" width="60" height="30" as="geometry" />
        </mxCell>
        <mxCell id="us3CnqQdpKLgeB0TEY4D-32" value="NO" style="text;html=1;align=center;verticalAlign=middle;whiteSpace=wrap;rounded=0;" vertex="1" parent="1">
          <mxGeometry x="350" y="640" width="60" height="30" as="geometry" />
        </mxCell>
        <mxCell id="us3CnqQdpKLgeB0TEY4D-33" value="YES" style="text;html=1;align=center;verticalAlign=middle;whiteSpace=wrap;rounded=0;" vertex="1" parent="1">
          <mxGeometry x="395" y="730" width="60" height="30" as="geometry" />
        </mxCell>
        <mxCell id="us3CnqQdpKLgeB0TEY4D-34" value="NO" style="text;html=1;align=center;verticalAlign=middle;whiteSpace=wrap;rounded=0;" vertex="1" parent="1">
          <mxGeometry x="352.5" y="770" width="60" height="30" as="geometry" />
        </mxCell>
        <mxCell id="us3CnqQdpKLgeB0TEY4D-35" value="YES" style="text;html=1;align=center;verticalAlign=middle;whiteSpace=wrap;rounded=0;" vertex="1" parent="1">
          <mxGeometry x="395" y="870" width="60" height="30" as="geometry" />
        </mxCell>
        <mxCell id="us3CnqQdpKLgeB0TEY4D-36" value="NO" style="text;html=1;align=center;verticalAlign=middle;whiteSpace=wrap;rounded=0;" vertex="1" parent="1">
          <mxGeometry x="255" y="870" width="60" height="30" as="geometry" />
        </mxCell>
      </root>
    </mxGraphModel>
  </diagram>
  <diagram id="7pJdRy4Whis87N11_DhP" name="Page-2">
    <mxGraphModel dx="1097" dy="604" grid="1" gridSize="10" guides="1" tooltips="1" connect="1" arrows="1" fold="1" page="1" pageScale="1" pageWidth="850" pageHeight="1100" math="0" shadow="0" adaptiveColors="none">
      <root>
        <mxCell id="0" />
        <mxCell id="1" parent="0" />
        <mxCell id="_W_jdltOOoSAd4AHRPFx-21" style="edgeStyle=orthogonalEdgeStyle;rounded=0;orthogonalLoop=1;jettySize=auto;html=1;exitX=0.5;exitY=1;exitDx=0;exitDy=0;entryX=0.5;entryY=0;entryDx=0;entryDy=0;" edge="1" parent="1" source="_W_jdltOOoSAd4AHRPFx-1" target="_W_jdltOOoSAd4AHRPFx-2">
          <mxGeometry relative="1" as="geometry" />
        </mxCell>
        <mxCell id="_W_jdltOOoSAd4AHRPFx-1" value="Program Dijalankan" style="rounded=1;whiteSpace=wrap;html=1;" vertex="1" parent="1">
          <mxGeometry x="336.88" y="30" width="125" height="40" as="geometry" />
        </mxCell>
        <mxCell id="_W_jdltOOoSAd4AHRPFx-22" style="edgeStyle=orthogonalEdgeStyle;rounded=0;orthogonalLoop=1;jettySize=auto;html=1;exitX=0;exitY=0.5;exitDx=0;exitDy=0;entryX=1;entryY=0.5;entryDx=0;entryDy=0;" edge="1" parent="1" source="_W_jdltOOoSAd4AHRPFx-2" target="_W_jdltOOoSAd4AHRPFx-6">
          <mxGeometry relative="1" as="geometry" />
        </mxCell>
        <mxCell id="_W_jdltOOoSAd4AHRPFx-2" value="LOAD File Eksternal:&lt;div&gt;user.csv, penyakit.csv, obat.csv, obat_penyakit.csv, config.txt&lt;/div&gt;" style="rounded=0;whiteSpace=wrap;html=1;" vertex="1" parent="1">
          <mxGeometry x="338.75" y="120" width="121.25" height="90" as="geometry" />
        </mxCell>
        <mxCell id="_W_jdltOOoSAd4AHRPFx-19" style="edgeStyle=orthogonalEdgeStyle;rounded=0;orthogonalLoop=1;jettySize=auto;html=1;exitX=0.5;exitY=1;exitDx=0;exitDy=0;entryX=0.5;entryY=0;entryDx=0;entryDy=0;" edge="1" parent="1" source="_W_jdltOOoSAd4AHRPFx-3" target="_W_jdltOOoSAd4AHRPFx-9">
          <mxGeometry relative="1" as="geometry" />
        </mxCell>
        <mxCell id="_W_jdltOOoSAd4AHRPFx-52" style="edgeStyle=orthogonalEdgeStyle;rounded=0;orthogonalLoop=1;jettySize=auto;html=1;exitX=0;exitY=0.5;exitDx=0;exitDy=0;entryX=0;entryY=0.5;entryDx=0;entryDy=0;" edge="1" parent="1" source="_W_jdltOOoSAd4AHRPFx-3" target="_W_jdltOOoSAd4AHRPFx-6">
          <mxGeometry relative="1" as="geometry">
            <Array as="points">
              <mxPoint x="140" y="293" />
              <mxPoint x="140" y="165" />
            </Array>
          </mxGeometry>
        </mxCell>
        <mxCell id="_W_jdltOOoSAd4AHRPFx-3" value="Input REGISTER?" style="rhombus;whiteSpace=wrap;html=1;" vertex="1" parent="1">
          <mxGeometry x="190" y="250" width="90.62" height="85" as="geometry" />
        </mxCell>
        <mxCell id="_W_jdltOOoSAd4AHRPFx-17" style="edgeStyle=orthogonalEdgeStyle;rounded=0;orthogonalLoop=1;jettySize=auto;html=1;exitX=0;exitY=0.5;exitDx=0;exitDy=0;entryX=1;entryY=0.5;entryDx=0;entryDy=0;" edge="1" parent="1" source="_W_jdltOOoSAd4AHRPFx-4" target="_W_jdltOOoSAd4AHRPFx-3">
          <mxGeometry relative="1" as="geometry" />
        </mxCell>
        <mxCell id="_W_jdltOOoSAd4AHRPFx-18" style="edgeStyle=orthogonalEdgeStyle;rounded=0;orthogonalLoop=1;jettySize=auto;html=1;exitX=0.5;exitY=1;exitDx=0;exitDy=0;" edge="1" parent="1" source="_W_jdltOOoSAd4AHRPFx-4" target="_W_jdltOOoSAd4AHRPFx-8">
          <mxGeometry relative="1" as="geometry" />
        </mxCell>
        <mxCell id="_W_jdltOOoSAd4AHRPFx-4" value="Input&amp;nbsp;&lt;div&gt;LOGIN?&lt;/div&gt;" style="rhombus;whiteSpace=wrap;html=1;" vertex="1" parent="1">
          <mxGeometry x="330" y="252.5" width="80" height="80" as="geometry" />
        </mxCell>
        <mxCell id="_W_jdltOOoSAd4AHRPFx-15" style="edgeStyle=orthogonalEdgeStyle;rounded=0;orthogonalLoop=1;jettySize=auto;html=1;exitX=0.5;exitY=1;exitDx=0;exitDy=0;entryX=0.5;entryY=0;entryDx=0;entryDy=0;" edge="1" parent="1" source="_W_jdltOOoSAd4AHRPFx-5" target="_W_jdltOOoSAd4AHRPFx-7">
          <mxGeometry relative="1" as="geometry" />
        </mxCell>
        <mxCell id="_W_jdltOOoSAd4AHRPFx-16" style="edgeStyle=orthogonalEdgeStyle;rounded=0;orthogonalLoop=1;jettySize=auto;html=1;exitX=0;exitY=0.5;exitDx=0;exitDy=0;entryX=1;entryY=0.5;entryDx=0;entryDy=0;" edge="1" parent="1" source="_W_jdltOOoSAd4AHRPFx-5" target="_W_jdltOOoSAd4AHRPFx-4">
          <mxGeometry relative="1" as="geometry" />
        </mxCell>
        <mxCell id="_W_jdltOOoSAd4AHRPFx-5" value="Input&amp;nbsp;&lt;div&gt;HELP?&lt;/div&gt;" style="rhombus;whiteSpace=wrap;html=1;" vertex="1" parent="1">
          <mxGeometry x="460" y="252.5" width="80" height="80" as="geometry" />
        </mxCell>
        <mxCell id="_W_jdltOOoSAd4AHRPFx-14" style="edgeStyle=orthogonalEdgeStyle;rounded=0;orthogonalLoop=1;jettySize=auto;html=1;exitX=0.5;exitY=1;exitDx=0;exitDy=0;entryX=0.5;entryY=0;entryDx=0;entryDy=0;" edge="1" parent="1" source="_W_jdltOOoSAd4AHRPFx-6" target="_W_jdltOOoSAd4AHRPFx-5">
          <mxGeometry relative="1" as="geometry">
            <Array as="points">
              <mxPoint x="235" y="230" />
              <mxPoint x="500" y="230" />
            </Array>
          </mxGeometry>
        </mxCell>
        <mxCell id="_W_jdltOOoSAd4AHRPFx-6" value="Input Command" style="shape=parallelogram;perimeter=parallelogramPerimeter;whiteSpace=wrap;html=1;fixedSize=1;" vertex="1" parent="1">
          <mxGeometry x="175.31" y="135" width="120" height="60" as="geometry" />
        </mxCell>
        <mxCell id="_W_jdltOOoSAd4AHRPFx-78" style="edgeStyle=orthogonalEdgeStyle;rounded=0;orthogonalLoop=1;jettySize=auto;html=1;exitX=1;exitY=0.5;exitDx=0;exitDy=0;entryX=0;entryY=0.5;entryDx=0;entryDy=0;" edge="1" parent="1" source="_W_jdltOOoSAd4AHRPFx-7" target="_W_jdltOOoSAd4AHRPFx-6">
          <mxGeometry relative="1" as="geometry">
            <Array as="points">
              <mxPoint x="590" y="425" />
              <mxPoint x="590" y="780" />
              <mxPoint x="20" y="780" />
              <mxPoint x="20" y="165" />
            </Array>
          </mxGeometry>
        </mxCell>
        <mxCell id="_W_jdltOOoSAd4AHRPFx-7" value="Output Menu Help : Belum Login" style="shape=parallelogram;perimeter=parallelogramPerimeter;whiteSpace=wrap;html=1;fixedSize=1;" vertex="1" parent="1">
          <mxGeometry x="435" y="400" width="130" height="50" as="geometry" />
        </mxCell>
        <mxCell id="_W_jdltOOoSAd4AHRPFx-46" style="edgeStyle=orthogonalEdgeStyle;rounded=0;orthogonalLoop=1;jettySize=auto;html=1;exitX=0;exitY=0.5;exitDx=0;exitDy=0;entryX=0.5;entryY=1;entryDx=0;entryDy=0;" edge="1" parent="1" source="_W_jdltOOoSAd4AHRPFx-8" target="_W_jdltOOoSAd4AHRPFx-12">
          <mxGeometry relative="1" as="geometry">
            <mxPoint x="310" y="600" as="targetPoint" />
            <Array as="points">
              <mxPoint x="310" y="430" />
              <mxPoint x="310" y="600" />
              <mxPoint x="95" y="600" />
            </Array>
          </mxGeometry>
        </mxCell>
        <mxCell id="_W_jdltOOoSAd4AHRPFx-64" style="edgeStyle=orthogonalEdgeStyle;rounded=0;orthogonalLoop=1;jettySize=auto;html=1;exitX=0.5;exitY=1;exitDx=0;exitDy=0;entryX=0.5;entryY=0;entryDx=0;entryDy=0;" edge="1" parent="1" source="_W_jdltOOoSAd4AHRPFx-8" target="_W_jdltOOoSAd4AHRPFx-61">
          <mxGeometry relative="1" as="geometry" />
        </mxCell>
        <mxCell id="_W_jdltOOoSAd4AHRPFx-8" value="Data Input Valid?" style="rhombus;whiteSpace=wrap;html=1;" vertex="1" parent="1">
          <mxGeometry x="330" y="390" width="80" height="80" as="geometry" />
        </mxCell>
        <mxCell id="_W_jdltOOoSAd4AHRPFx-20" style="edgeStyle=orthogonalEdgeStyle;rounded=0;orthogonalLoop=1;jettySize=auto;html=1;exitX=0.5;exitY=1;exitDx=0;exitDy=0;entryX=0.5;entryY=0;entryDx=0;entryDy=0;" edge="1" parent="1" source="_W_jdltOOoSAd4AHRPFx-9" target="_W_jdltOOoSAd4AHRPFx-13">
          <mxGeometry relative="1" as="geometry" />
        </mxCell>
        <mxCell id="_W_jdltOOoSAd4AHRPFx-45" style="edgeStyle=orthogonalEdgeStyle;rounded=0;orthogonalLoop=1;jettySize=auto;html=1;exitX=0;exitY=0.5;exitDx=0;exitDy=0;entryX=0.5;entryY=1;entryDx=0;entryDy=0;" edge="1" parent="1" source="_W_jdltOOoSAd4AHRPFx-9" target="_W_jdltOOoSAd4AHRPFx-12">
          <mxGeometry relative="1" as="geometry" />
        </mxCell>
        <mxCell id="_W_jdltOOoSAd4AHRPFx-9" value="Data Input Valid?" style="rhombus;whiteSpace=wrap;html=1;" vertex="1" parent="1">
          <mxGeometry x="192.66" y="390" width="85.31" height="80" as="geometry" />
        </mxCell>
        <mxCell id="_W_jdltOOoSAd4AHRPFx-43" style="edgeStyle=orthogonalEdgeStyle;rounded=0;orthogonalLoop=1;jettySize=auto;html=1;exitX=0.5;exitY=0;exitDx=0;exitDy=0;entryX=0;entryY=0.5;entryDx=0;entryDy=0;" edge="1" parent="1" source="_W_jdltOOoSAd4AHRPFx-12" target="_W_jdltOOoSAd4AHRPFx-6">
          <mxGeometry relative="1" as="geometry">
            <mxPoint x="140" y="160" as="targetPoint" />
            <Array as="points">
              <mxPoint x="95" y="165" />
            </Array>
          </mxGeometry>
        </mxCell>
        <mxCell id="_W_jdltOOoSAd4AHRPFx-12" value="Output Error Message" style="shape=parallelogram;perimeter=parallelogramPerimeter;whiteSpace=wrap;html=1;fixedSize=1;" vertex="1" parent="1">
          <mxGeometry x="40" y="320" width="110" height="40" as="geometry" />
        </mxCell>
        <mxCell id="_W_jdltOOoSAd4AHRPFx-60" style="edgeStyle=orthogonalEdgeStyle;rounded=0;orthogonalLoop=1;jettySize=auto;html=1;exitX=0;exitY=0.5;exitDx=0;exitDy=0;entryX=0;entryY=0.5;entryDx=0;entryDy=0;" edge="1" parent="1" source="_W_jdltOOoSAd4AHRPFx-13" target="_W_jdltOOoSAd4AHRPFx-6">
          <mxGeometry relative="1" as="geometry">
            <Array as="points">
              <mxPoint x="20" y="530" />
              <mxPoint x="20" y="165" />
            </Array>
          </mxGeometry>
        </mxCell>
        <mxCell id="_W_jdltOOoSAd4AHRPFx-13" value="Data Input Dimasukan ke Database User Program" style="rounded=0;whiteSpace=wrap;html=1;" vertex="1" parent="1">
          <mxGeometry x="175.31" y="500" width="120" height="60" as="geometry" />
        </mxCell>
        <mxCell id="_W_jdltOOoSAd4AHRPFx-47" value="NO" style="text;html=1;align=center;verticalAlign=middle;whiteSpace=wrap;rounded=0;" vertex="1" parent="1">
          <mxGeometry x="410" y="270" width="60" height="30" as="geometry" />
        </mxCell>
        <mxCell id="_W_jdltOOoSAd4AHRPFx-48" value="NO" style="text;html=1;align=center;verticalAlign=middle;whiteSpace=wrap;rounded=0;" vertex="1" parent="1">
          <mxGeometry x="280.62" y="270" width="60" height="30" as="geometry" />
        </mxCell>
        <mxCell id="_W_jdltOOoSAd4AHRPFx-53" value="NO" style="text;html=1;align=center;verticalAlign=middle;whiteSpace=wrap;rounded=0;" vertex="1" parent="1">
          <mxGeometry x="140" y="270" width="60" height="30" as="geometry" />
        </mxCell>
        <mxCell id="_W_jdltOOoSAd4AHRPFx-54" value="YES" style="text;html=1;align=center;verticalAlign=middle;whiteSpace=wrap;rounded=0;" vertex="1" parent="1">
          <mxGeometry x="220.62" y="335" width="60" height="30" as="geometry" />
        </mxCell>
        <mxCell id="_W_jdltOOoSAd4AHRPFx-55" value="YES" style="text;html=1;align=center;verticalAlign=middle;whiteSpace=wrap;rounded=0;" vertex="1" parent="1">
          <mxGeometry x="360" y="335" width="60" height="30" as="geometry" />
        </mxCell>
        <mxCell id="_W_jdltOOoSAd4AHRPFx-56" value="YES" style="text;html=1;align=center;verticalAlign=middle;whiteSpace=wrap;rounded=0;" vertex="1" parent="1">
          <mxGeometry x="490" y="335" width="60" height="30" as="geometry" />
        </mxCell>
        <mxCell id="_W_jdltOOoSAd4AHRPFx-57" value="YES" style="text;html=1;align=center;verticalAlign=middle;whiteSpace=wrap;rounded=0;" vertex="1" parent="1">
          <mxGeometry x="220.62" y="470" width="60" height="30" as="geometry" />
        </mxCell>
        <mxCell id="_W_jdltOOoSAd4AHRPFx-58" value="NO" style="text;html=1;align=center;verticalAlign=middle;whiteSpace=wrap;rounded=0;" vertex="1" parent="1">
          <mxGeometry x="140" y="410" width="60" height="30" as="geometry" />
        </mxCell>
        <mxCell id="_W_jdltOOoSAd4AHRPFx-59" value="NO" style="text;html=1;align=center;verticalAlign=middle;whiteSpace=wrap;rounded=0;" vertex="1" parent="1">
          <mxGeometry x="290" y="410" width="60" height="30" as="geometry" />
        </mxCell>
        <mxCell id="_W_jdltOOoSAd4AHRPFx-65" style="edgeStyle=orthogonalEdgeStyle;rounded=0;orthogonalLoop=1;jettySize=auto;html=1;exitX=0.5;exitY=1;exitDx=0;exitDy=0;entryX=0.5;entryY=0;entryDx=0;entryDy=0;" edge="1" parent="1" source="_W_jdltOOoSAd4AHRPFx-61" target="_W_jdltOOoSAd4AHRPFx-62">
          <mxGeometry relative="1" as="geometry" />
        </mxCell>
        <mxCell id="_W_jdltOOoSAd4AHRPFx-70" style="edgeStyle=orthogonalEdgeStyle;rounded=0;orthogonalLoop=1;jettySize=auto;html=1;exitX=1;exitY=0.5;exitDx=0;exitDy=0;entryX=0;entryY=0.5;entryDx=0;entryDy=0;" edge="1" parent="1" source="_W_jdltOOoSAd4AHRPFx-61" target="_W_jdltOOoSAd4AHRPFx-67">
          <mxGeometry relative="1" as="geometry" />
        </mxCell>
        <mxCell id="_W_jdltOOoSAd4AHRPFx-61" value="Data Input Pasien?" style="rhombus;whiteSpace=wrap;html=1;" vertex="1" parent="1">
          <mxGeometry x="330" y="500" width="80" height="80" as="geometry" />
        </mxCell>
        <mxCell id="_W_jdltOOoSAd4AHRPFx-66" style="edgeStyle=orthogonalEdgeStyle;rounded=0;orthogonalLoop=1;jettySize=auto;html=1;exitX=0.5;exitY=1;exitDx=0;exitDy=0;entryX=0.5;entryY=0;entryDx=0;entryDy=0;" edge="1" parent="1" source="_W_jdltOOoSAd4AHRPFx-62" target="_W_jdltOOoSAd4AHRPFx-71">
          <mxGeometry relative="1" as="geometry">
            <mxPoint x="370" y="740" as="targetPoint" />
          </mxGeometry>
        </mxCell>
        <mxCell id="_W_jdltOOoSAd4AHRPFx-69" value="" style="edgeStyle=orthogonalEdgeStyle;rounded=0;orthogonalLoop=1;jettySize=auto;html=1;" edge="1" parent="1" source="_W_jdltOOoSAd4AHRPFx-62" target="_W_jdltOOoSAd4AHRPFx-68">
          <mxGeometry relative="1" as="geometry" />
        </mxCell>
        <mxCell id="_W_jdltOOoSAd4AHRPFx-62" value="Data Input Dokter?" style="rhombus;whiteSpace=wrap;html=1;" vertex="1" parent="1">
          <mxGeometry x="330" y="620" width="80" height="80" as="geometry" />
        </mxCell>
        <mxCell id="_W_jdltOOoSAd4AHRPFx-67" value="Masuk Mode Pasien" style="rounded=0;whiteSpace=wrap;html=1;" vertex="1" parent="1">
          <mxGeometry x="460" y="522.5" width="105" height="35" as="geometry" />
        </mxCell>
        <mxCell id="_W_jdltOOoSAd4AHRPFx-68" value="Masuk Mode Dokter" style="whiteSpace=wrap;html=1;" vertex="1" parent="1">
          <mxGeometry x="460" y="640" width="110" height="40" as="geometry" />
        </mxCell>
        <mxCell id="_W_jdltOOoSAd4AHRPFx-71" value="Masuk Mode Manajer" style="rounded=0;whiteSpace=wrap;html=1;" vertex="1" parent="1">
          <mxGeometry x="316.25" y="730" width="107.5" height="40" as="geometry" />
        </mxCell>
        <mxCell id="_W_jdltOOoSAd4AHRPFx-73" value="YES" style="text;html=1;align=center;verticalAlign=middle;whiteSpace=wrap;rounded=0;" vertex="1" parent="1">
          <mxGeometry x="360" y="470" width="60" height="30" as="geometry" />
        </mxCell>
        <mxCell id="_W_jdltOOoSAd4AHRPFx-74" value="YES" style="text;html=1;align=center;verticalAlign=middle;whiteSpace=wrap;rounded=0;" vertex="1" parent="1">
          <mxGeometry x="401.88" y="515" width="60" height="30" as="geometry" />
        </mxCell>
        <mxCell id="_W_jdltOOoSAd4AHRPFx-75" value="YES" style="text;html=1;align=center;verticalAlign=middle;whiteSpace=wrap;rounded=0;" vertex="1" parent="1">
          <mxGeometry x="400" y="630" width="60" height="30" as="geometry" />
        </mxCell>
        <mxCell id="_W_jdltOOoSAd4AHRPFx-76" value="NO" style="text;html=1;align=center;verticalAlign=middle;whiteSpace=wrap;rounded=0;" vertex="1" parent="1">
          <mxGeometry x="360" y="580" width="60" height="30" as="geometry" />
        </mxCell>
        <mxCell id="_W_jdltOOoSAd4AHRPFx-77" value="NO" style="text;html=1;align=center;verticalAlign=middle;whiteSpace=wrap;rounded=0;" vertex="1" parent="1">
          <mxGeometry x="360" y="700" width="60" height="30" as="geometry" />
        </mxCell>
      </root>
    </mxGraphModel>
  </diagram>
</mxfile>
